<svg xmlns="http://www.w3.org/2000/svg" version="1.1" xmlns:xlink="http://www.w3.org/1999/xlink" xmlns:svgjs="http://svgjs.dev/svgjs" width="1440" height="560" preserveAspectRatio="none" viewBox="0 0 1440 560"><g mask="url(&quot;#SvgjsMask1005&quot;)" fill="none"><rect width="1440" height="560" x="0" y="0" fill="rgba(180, 174, 81, 1)"></rect><path d="M0 36.84C4.95 14.54 9.63 5.65 31.11 0C79.63 -12.77 85.56 0 140 0C210 0 210 0 280 0C350 0 350 0 420 0C490 0 490 0 560 0C579.44 0 587.08 -13.47 598.89 0C648.44 56.53 692.31 77.3 682.72 140C672.87 204.43 626.15 204.66 560 254.25C532.79 274.66 496 265.44 496 280C496 295.29 525.22 308.32 560 313.94C627.22 324.79 631.51 322.63 700 312.94C751.51 305.66 756.21 305.54 800 280C826.21 264.72 814.62 249.22 840 231.3C904.62 185.68 910.88 193.41 980 152.92C988.81 147.76 994.48 149.74 995.85 140C1005.25 73.28 967.9 37.93 1001.54 0C1029.98 -32.07 1060.77 0 1120 0C1190 0 1190 0 1260 0C1330 0 1330 0 1400 0C1470 0 1505 -35 1540 0C1575 35 1540 70 1540 140C1540 210 1540 210 1540 280C1540 334.73 1547.58 337.01 1540 389.45C1537.46 407.01 1519.76 404.85 1519.76 420C1519.76 434.61 1537.56 432.07 1540 448.97C1547.68 502.07 1568.75 533.23 1540 560C1509.12 588.75 1478.56 565.86 1420.74 560C1408.56 558.77 1410.98 545.82 1400 545.82C1385.06 545.82 1385.62 558.31 1368.89 560C1315.62 565.4 1314.45 560 1260 560C1214.42 560 1201.61 581.37 1168.84 560C1131.61 535.72 1140.35 468.7 1120 468.7C1101.14 468.7 1122.97 538.77 1090.42 560C1052.97 584.42 1035.21 560 980 560C910 560 910 560 840 560C791.21 560 787.57 570.62 742.42 560C717.57 554.15 720.04 527.06 700 527.06C682.92 527.06 689 555.1 668.18 560C619 571.57 614.09 560 560 560C508.82 560 486.11 589.05 457.63 560C417.49 519.05 440.63 489.86 422.75 420C421.82 416.36 421.41 413 420 413C418.58 413 418.24 416.39 417.08 420C394.59 489.89 414.72 517.09 372.7 560C346.18 587.09 326.35 560 280 560C223.77 560 191.56 591.17 167.54 560C137.62 521.17 181.98 486.37 172.13 420C168.21 393.58 162.87 374.42 140 374.42C89.16 374.42 31.29 380 24.71 420C16.02 472.79 116.85 518.05 109.45 560C104.5 588.05 24.01 590.71 0 560C-30.71 520.71 0 490 0 420C0 402.5 -4 401.88 0 385C12.58 331.88 33.16 326.11 33.16 280C33.16 263.92 4 277.53 0 260.62C-12.58 207.53 0 200.31 0 140C0 88.42 -10.6 84.54 0 36.84" stroke="rgba(33, 22, 18, 1)" stroke-width="2"></path><path d="M1400 123.42C1353.15 123.42 1303.48 111.21 1303.08 140C1302.4 189.5 1350.21 210.23 1397.85 280C1398.67 281.2 1398.83 281.94 1400 281.94C1401.5 281.94 1402.84 281.81 1403.18 280C1416.24 210.84 1428.11 204.07 1426.81 140C1426.52 125.78 1415.02 123.42 1400 123.42" stroke="rgba(33, 22, 18, 1)" stroke-width="2"></path><path d="M1120 257.5C1110.93 257.5 1101.47 266.66 1101.47 280C1101.47 314.97 1111.04 354.12 1120 354.12C1128.93 354.12 1137.26 315.2 1137.26 280C1137.26 266.89 1128.82 257.5 1120 257.5" stroke="rgba(33, 22, 18, 1)" stroke-width="2"></path><path d="M980 409.06C971.22 409.06 964.78 414.44 964.78 420C964.78 425.65 971.12 431.48 980 431.48C1005.65 431.48 1033.85 425.61 1033.85 420C1033.85 414.4 1005.75 409.06 980 409.06" stroke="rgba(33, 22, 18, 1)" stroke-width="2"></path><path d="M0 82.89C22.93 37.03 27.45 25.19 70 0C97.45 -16.25 105 0 140 0C210 0 210 0 280 0C350 0 350 0 420 0C465 0 469.5 -12.27 510 0C539.5 8.94 537.82 18.44 560 42.42C602.58 88.44 639.51 93.95 639.51 140C639.51 179.75 607.2 190.87 560 214.02C497.44 244.71 484.48 222.1 420 247.69C401.36 255.09 402.05 261.14 393.75 280C364.14 347.29 361.68 348.24 344.17 420C327.51 488.24 349.69 507.03 325.41 560C317.6 577.03 302.71 560 280 560C252.46 560 232.05 579.76 224.92 560C206.8 509.76 249.64 483.29 229.51 420C207.18 349.8 186.27 355.15 140 293.02C134.14 285.15 133.62 285.15 125.26 280C63.62 242.02 42.89 254.71 0 206.77C-19.74 184.71 0 173.38 0 140C0 111.44 -12.07 107.03 0 82.89" stroke="rgba(33, 22, 18, 1)" stroke-width="2"></path><path d="M1061.89 140C1061.89 83.87 1088.3 16.8 1120 16.8C1153.17 16.8 1147.61 85.86 1191.63 140C1217.61 171.96 1229.18 160.69 1260 189C1305.37 230.69 1300.5 236.02 1344 280C1370.5 306.8 1369.64 330.56 1400 330.56C1439.01 330.56 1462.12 318.79 1482.73 280C1512.76 223.51 1523.72 194.97 1501.28 140C1482.36 93.65 1449.68 110.14 1400 77.37C1343.57 40.14 1289.06 21.25 1289.06 0C1289.06 -17.43 1344.53 0 1400 0C1470 0 1505 -35 1540 0C1575 35 1540 70 1540 140C1540 210 1540 210 1540 280C1540 302.91 1549 305.62 1540 325.82C1517.8 375.62 1512.66 375.99 1477.59 420C1442.66 463.84 1440.67 501.52 1400 501.52C1355.21 501.52 1351.44 462.68 1306.67 420C1281.44 395.95 1282.88 394.43 1260 368.06C1222.15 324.43 1221.53 324.9 1185.21 280C1151.53 238.37 1155.3 235.07 1120 195C1093.64 165.07 1061.89 172.97 1061.89 140" stroke="rgba(33, 22, 18, 1)" stroke-width="2"></path><path d="M886.67 280C927.27 237.85 935.95 206.77 980 206.77C1017.62 206.77 1050 243.25 1050 280C1050 317.05 1018.39 321.06 980 354.38C937.74 391.06 888.7 386.67 888.7 420C888.7 453.9 938.13 450.4 980 488.85C1014.35 520.4 1041.13 538.46 1041.13 560C1041.13 574.04 1010.57 560 980 560C910 560 910 560 840 560C817.72 560 814.3 569.98 795.45 560C744.3 532.92 745.08 485.88 700 485.88C661.56 485.88 670.48 537.73 628.41 560C600.48 574.79 594.2 560 560 560C527.63 560 506.12 582.13 495.27 560C471.8 512.13 471.38 479.6 491.37 420C503.75 383.09 520.2 379.54 560 366.97C624.51 346.6 629.86 357.84 700 354.12C769.86 350.42 782.15 375.09 840 352.12C875.49 338.03 857.27 310.52 886.67 280" stroke="rgba(33, 22, 18, 1)" stroke-width="2"></path><path d="M0 497C12.67 497 45.82 540.17 45.82 560C45.82 571.67 9.65 573.26 0 560C-13.26 541.76 -10.24 497 0 497" stroke="rgba(33, 22, 18, 1)" stroke-width="2"></path><path d="M1250.23 560C1250.23 554.68 1254.79 543.85 1260 543.85C1265.51 543.85 1271.67 554.91 1271.67 560C1271.67 562.98 1265.84 560 1260 560C1255.11 560 1250.23 562.75 1250.23 560" stroke="rgba(33, 22, 18, 1)" stroke-width="2"></path><path d="M1485.56 560C1485.56 545.37 1523.81 509.31 1540 509.31C1551.03 509.31 1553.12 547.78 1540 560C1525.9 573.12 1485.56 570.71 1485.56 560" stroke="rgba(33, 22, 18, 1)" stroke-width="2"></path><path d="M0 128.95C11.15 128.95 30 134.07 30 140C30 146.06 10.75 152.92 0 152.92C-4.25 152.92 0 146.46 0 140C0 134.48 -3.85 128.95 0 128.95" stroke="rgba(33, 22, 18, 1)" stroke-width="2"></path><path d="M140 66.67C117.89 38.04 108.89 23.43 108.89 0C108.89 -9.91 124.44 0 140 0C210 0 210 0 280 0C350 0 350 0 420 0C433.75 0 447.5 -10.37 447.5 0C447.5 37.75 438.9 50.57 420 96.25C409.94 120.57 405.39 118.56 389.57 140C337.58 210.44 329.98 207.17 284.38 280C275.19 294.67 282.67 315 280 315C277.3 315 279.65 296.68 273.64 280C248.15 209.18 256.21 202.59 217 140C189.39 95.93 171.95 108.04 140 66.67" stroke="rgba(33, 22, 18, 1)" stroke-width="2"></path><path d="M446.92 140C446.92 120.13 509.29 95.45 560 95.45C583.98 95.45 596.3 118.97 596.3 140C596.3 158.14 582.1 173.79 560 173.79C507.41 173.79 446.92 159.3 446.92 140" stroke="rgba(33, 22, 18, 1)" stroke-width="2"></path><path d="M1400 31.32C1376.32 31.32 1355.09 8.6 1355.09 0C1355.09 -7.06 1377.55 0 1400 0C1432.16 0 1464.32 -7.41 1464.32 0C1464.32 8.25 1430.94 31.32 1400 31.32" stroke="rgba(33, 22, 18, 1)" stroke-width="2"></path><path d="M955.29 280C955.29 270.26 968.34 260.62 980 260.62C989.96 260.62 998.53 270.27 998.53 280C998.53 289.81 989.97 299.69 980 299.69C968.35 299.69 955.29 289.8 955.29 280" stroke="rgba(33, 22, 18, 1)" stroke-width="2"></path><path d="M1233.15 280C1233.15 263.77 1246.11 247.33 1260 247.33C1274.61 247.33 1290.15 263.79 1290.15 280C1290.15 295.93 1274.62 311.61 1260 311.61C1246.12 311.61 1233.15 295.91 1233.15 280" stroke="rgba(33, 22, 18, 1)" stroke-width="2"></path><path d="M560 420C560 407.64 630.62 395.29 700 395.29C744.37 395.29 787.5 407.64 787.5 420C787.5 432.36 744.37 444.71 700 444.71C630.62 444.71 560 432.36 560 420" stroke="rgba(33, 22, 18, 1)" stroke-width="2"></path><path d="M1357.39 420C1357.39 400.08 1379.64 379.17 1400 379.17C1418.65 379.17 1435.42 399.99 1435.42 420C1435.42 439.02 1418.57 457.22 1400 457.22C1379.55 457.22 1357.39 439.1 1357.39 420" stroke="rgba(33, 22, 18, 1)" stroke-width="2"></path><path d="M532.9 560C532.9 501.18 546.08 420 560 420C573.95 420 588.64 501.69 588.64 560C588.64 571.69 574.32 560 560 560C546.45 560 532.9 571.18 532.9 560" stroke="rgba(33, 22, 18, 1)" stroke-width="2"></path><path d="M896 560C896 556.53 940.51 546.23 980 546.23C988.42 546.23 991.83 555.83 991.83 560C991.83 562.72 985.91 560 980 560C938 560 896 563.42 896 560" stroke="rgba(33, 22, 18, 1)" stroke-width="2"></path></g><defs><mask id="SvgjsMask1005"><rect width="1440" height="560" fill="#ffffff"></rect></mask></defs></svg>